<?xml version="1.0" standalone="no"?>
<!DOCTYPE svg PUBLIC "-//W3C//DTD SVG 20010904//EN"
 "http://www.w3.org/TR/2001/REC-SVG-20010904/DTD/svg10.dtd">
<svg version="1.0" xmlns="http://www.w3.org/2000/svg"
 width="564.000000pt" height="443.000000pt" viewBox="0 0 564.000000 443.000000"
 preserveAspectRatio="xMidYMid meet">
<g transform="translate(0.000000,443.000000) scale(0.050000,-0.050000)"
fill="#000000" stroke="none">
<path d="M3640 6120 c-25 -47 -19 -3408 7 -3433 9 -10 295 -20 635 -23 l618
-6 4 -444 c2 -244 2 -464 1 -489 -4 -65 -27 -86 510 444 l495 490 904 0 c537
1 924 9 955 21 l51 19 0 1082 0 1081 305 299 305 298 93 -105 c52 -57 97 -99
102 -94 4 6 45 127 90 270 185 588 189 603 140 585 -14 -5 -137 -42 -275 -83
-137 -41 -277 -86 -310 -100 -33 -14 -103 -38 -155 -53 -115 -34 -113 -49 22
-137 l105 -69 -93 -85 c-51 -47 -309 -295 -573 -552 -265 -256 -491 -469 -504
-472 -13 -3 -113 76 -222 175 -110 99 -215 178 -232 176 -27 -4 -825 -754
-936 -880 -51 -58 -75 -44 -325 185 -132 121 -249 220 -260 220 -22 0 -427
-392 -904 -875 -166 -168 -309 -305 -317 -305 -9 0 -16 594 -16 1320 l0 1320
1870 0 1870 0 0 -350 c0 -192 4 -350 8 -350 5 0 59 52 120 115 l111 115 1 326
c0 188 -9 343 -21 365 -33 62 -4146 61 -4179 -1z m3960 -2330 l0 -870 -914 0
-913 0 -304 -302 c-177 -175 -310 -293 -318 -280 -7 12 -12 132 -11 267 1 135
2 261 1 280 -1 32 -46 35 -580 40 l-579 5 564 575 564 575 150 -141 c252 -237
357 -323 386 -316 16 4 238 210 494 457 255 248 472 450 481 450 8 0 80 -57
158 -128 323 -290 264 -292 581 27 126 127 232 231 235 231 3 0 5 -391 5 -870z"/>
</g>
</svg>
