<?xml version="1.0" standalone="no"?>
<!DOCTYPE svg PUBLIC "-//W3C//DTD SVG 20010904//EN"
 "http://www.w3.org/TR/2001/REC-SVG-20010904/DTD/svg10.dtd">
<svg version="1.0" xmlns="http://www.w3.org/2000/svg"
 width="514.000000pt" height="485.000000pt" viewBox="0 0 514.000000 485.000000"
 preserveAspectRatio="xMidYMid meet">
<g transform="translate(0.000000,485.000000) scale(0.050000,-0.050000)"
fill="#000000" stroke="none">
<path d="M5999 7465 c0 -8 -54 -73 -120 -143 -141 -153 -141 -150 -39 -137
l80 11 0 -1888 0 -1888 -900 0 -900 0 -285 -292 c-157 -160 -292 -304 -301
-320 -42 -74 -54 -9 -54 292 l0 320 -526 0 -526 0 -44 -59 c-75 -102 -78 -101
446 -101 l490 0 0 -445 0 -445 439 445 439 445 951 0 951 0 0 241 0 240 57
-42 c347 -257 694 313 513 843 -87 254 -370 331 -525 143 l-45 -55 0 685 0
685 46 0 c37 0 63 -30 128 -145 44 -80 101 -179 126 -221 l45 -76 -42 -12
c-122 -31 -39 -66 157 -66 164 0 200 5 200 30 0 17 -18 30 -40 30 -39 0 -82
55 -183 233 -26 46 -86 148 -133 228 l-85 145 98 142 c72 103 116 147 161 160
130 37 73 72 -120 72 -171 0 -252 -37 -123 -56 78 -12 67 -63 -51 -240 -177
-264 -174 -270 -174 396 l0 570 75 -6 c93 -7 93 2 0 104 -42 45 -95 107 -118
137 -42 55 -66 69 -68 40z m410 -2812 c121 -122 124 -728 3 -880 -49 -62 -180
-67 -238 -9 -85 85 -101 729 -21 852 58 91 184 109 256 37z"/>
<path d="M2340 6990 c0 -16 17 -30 37 -30 99 0 103 -29 103 -692 -1 -696 -1
-701 -82 -718 -131 -29 -65 -70 112 -70 176 0 243 40 111 67 -47 9 -61 24 -71
77 -16 89 -3 1214 13 1176 7 -16 68 -196 134 -400 367 -1121 337 -1092 527
-505 204 629 229 706 266 841 54 191 78 157 63 -89 -7 -117 -13 -410 -13 -651
l0 -437 -60 -12 c-160 -32 -60 -67 190 -67 209 0 250 5 250 30 0 17 -18 30
-40 30 -116 0 -120 25 -120 697 0 670 9 723 121 723 22 0 39 14 39 30 0 25
-37 30 -209 30 l-209 0 -23 -85 c-13 -47 -61 -202 -108 -345 -47 -143 -114
-354 -149 -470 -36 -115 -72 -228 -80 -249 -11 -29 -70 124 -212 555 l-196
594 -197 0 c-162 0 -197 -5 -197 -30z"/>
<path d="M7655 6735 c-89 -59 -95 -67 -95 -150 0 -87 -1 -88 -65 -82 -47 5
-65 -1 -65 -23 0 -19 23 -32 64 -36 l64 -6 6 -429 6 -428 54 -54 c84 -84 239
-79 319 9 61 70 76 144 27 144 -16 0 -30 -16 -30 -36 0 -83 -121 -117 -159
-45 -13 23 -21 201 -21 440 l0 401 110 0 c97 0 110 5 110 40 0 37 -9 39 -109
28 l-109 -13 -6 151 -6 151 -95 -62z"/>
<path d="M4249 6513 c-203 -77 -269 -313 -89 -313 63 0 86 35 91 139 7 135
180 192 281 91 45 -45 49 -64 44 -185 l-6 -135 -120 -15 c-267 -33 -430 -172
-430 -366 0 -244 316 -361 503 -186 34 32 64 56 66 53 1 -3 14 -31 27 -61 22
-53 29 -55 164 -55 154 0 193 36 75 71 l-65 19 -10 400 c-11 450 -20 480 -165
539 -88 36 -278 38 -366 4z m331 -656 c0 -219 -51 -297 -195 -297 -260 0 -201
401 69 471 127 32 126 34 126 -174z"/>
<path d="M5460 6514 c-27 -14 -72 -60 -100 -102 l-50 -78 -6 90 -6 89 -159 -1
c-162 -2 -231 -52 -93 -68 l55 -7 -6 -443 -5 -444 -55 -6 c-31 -4 -55 -19 -55
-35 0 -24 44 -29 230 -29 186 0 230 5 230 29 0 16 -24 31 -55 35 l-55 6 -6
330 c-4 262 1 347 26 413 67 175 195 205 206 47 14 -191 184 -187 184 5 0 162
-134 243 -280 169z"/>
<path d="M6890 6510 c-271 -120 -339 -673 -113 -917 182 -195 546 -160 636 62
33 79 -21 114 -56 37 -132 -291 -464 -150 -495 211 l-13 157 295 0 c336 0 313
-15 276 181 -47 246 -296 373 -530 269z m272 -68 c39 -31 48 -60 54 -180 l9
-142 -183 0 -182 0 0 58 c0 233 163 377 302 264z"/>
<path d="M2507 5255 c-15 -25 13 -55 52 -55 79 0 82 -30 76 -752 l-5 -697 -65
-18 c-36 -10 -65 -32 -65 -49 0 -51 823 -25 930 31 376 194 298 805 -103 805
-24 0 -50 9 -57 20 -7 11 2 20 20 20 126 0 255 147 266 303 16 211 -52 310
-251 368 -121 35 -779 55 -798 24z m717 -125 c68 -50 96 -126 96 -258 0 -205
-115 -308 -345 -311 l-95 -1 0 312 0 312 145 -7 c105 -5 160 -18 199 -47z m73
-690 c80 -52 123 -163 123 -321 0 -276 -91 -369 -360 -369 l-170 0 -5 370 -6
370 186 -10 c114 -6 203 -22 232 -40z"/>
<path d="M4760 5251 c0 -18 25 -31 65 -35 l65 -6 5 -775 c5 -721 8 -775 40
-775 52 1 80 24 105 89 l22 58 54 -62 c327 -370 784 193 613 757 -87 288 -399
388 -578 184 l-50 -56 0 325 -1 325 -170 0 c-134 0 -170 -6 -170 -29z m656
-582 c151 -107 170 -733 25 -888 -183 -196 -341 -10 -341 402 0 433 122 621
316 486z"/>
<path d="M6640 5251 c0 -19 26 -31 75 -35 l75 -6 5 -718 c6 -759 4 -772 -87
-772 -29 0 -48 -12 -48 -30 0 -25 40 -30 240 -30 250 0 319 28 175 71 l-65 19
-5 765 -5 765 -180 0 c-143 0 -180 -6 -180 -29z"/>
<path d="M7447 4771 c-467 -146 -433 -1016 43 -1116 213 -45 490 100 490 256
0 58 -62 47 -92 -17 -161 -337 -548 -125 -548 300 l0 106 322 0 323 0 -15 114
c-37 302 -246 444 -523 357z m241 -97 c41 -41 93 -259 68 -284 -4 -4 -97 -9
-206 -11 l-200 -4 4 72 c14 221 208 353 334 227z"/>
<path d="M3693 4747 c-26 -27 -12 -47 33 -47 89 0 94 -25 94 -438 0 -351 4
-398 41 -474 88 -181 331 -196 504 -31 l75 71 0 -84 0 -84 170 0 c138 0 170 6
170 30 0 17 -17 30 -39 30 -96 0 -101 30 -101 551 l0 489 -180 0 c-147 0 -180
-6 -180 -30 0 -16 17 -30 38 -30 103 0 102 2 102 -411 l0 -386 -67 -72 c-55
-58 -82 -71 -145 -71 -160 1 -168 28 -168 559 l0 441 -167 0 c-91 0 -172 -6
-180 -13z"/>
</g>
</svg>
